# xmcd CD database file
#
# Track frame offsets:
#	150
#	16047
#	39599
#	59623
#	82778
#	102521
#	123712
#	142493
#
# Disc length: 2202 seconds
#
# Revision: 0
# Processed by: cddbd v1.5.2PL0 Copyright (c) Steve Scherf et al.
# Submitted via: CDex 1.51
#
DISCID=6e089808
DTITLE=Ricky-Tick Big Band - Ricky-Tick Big Band
DYEAR=2010
DGENRE=Jazz
TTITLE0=Swingtime in X-berg
TTITLE1=Beauty Passing By
TTITLE2=Easily Flammable
TTITLE3=Komeda
TTITLE4=It's a Deal
TTITLE5=Fridayy Fashion
TTITLE6=Skalitzer Special
TTITLE7=Babel
EXTD=YEAR: 2010
EXTT0=
EXTT1=
EXTT2=
EXTT3=
EXTT4=
EXTT5=
EXTT6=
EXTT7=
PLAYORDER=
